<svg width="500" height="120" viewBox="0 0 500 120" fill="none" xmlns="http://www.w3.org/2000/svg">
<path d="M145.872 47.736L145.104 53.784H136.896V81H129.024V53.784H120.432V47.736H145.872ZM169.442 47.736L168.626 53.352H156.914V61.32H167.138V66.84H156.914V75.336H169.442V81H149.042V47.736H169.442ZM185.252 68.28H182.18V81H174.308V47.736H185.204C189.748 47.736 193.156 48.568 195.427 50.232C197.732 51.896 198.884 54.44 198.884 57.864C198.884 60.008 198.372 61.8 197.348 63.24C196.324 64.648 194.708 65.848 192.5 66.84L200.948 81H192.068L185.252 68.28ZM182.18 62.856H185.492C187.252 62.856 188.564 62.456 189.428 61.656C190.324 60.856 190.772 59.592 190.772 57.864C190.772 56.264 190.292 55.096 189.332 54.36C188.404 53.624 186.964 53.256 185.012 53.256H182.18V62.856ZM224.333 47.736L223.517 53.352H211.805V61.32H222.029V66.84H211.805V75.336H224.333V81H203.933V47.736H224.333ZM207.821 44.76L205.085 41.64L211.901 35.448H216.509L223.277 41.64L220.589 44.76L214.205 40.728L207.821 44.76ZM265.501 47.736L256.237 81H246.445L236.845 47.736H245.149L251.485 74.856L257.437 47.736H265.501ZM288.364 47.736L287.548 53.352H275.836V61.32H286.06V66.84H275.836V75.336H288.364V81H267.964V47.736H288.364ZM304.173 68.28H301.101V81H293.229V47.736H304.125C308.669 47.736 312.077 48.568 314.349 50.232C316.653 51.896 317.805 54.44 317.805 57.864C317.805 60.008 317.293 61.8 316.269 63.24C315.245 64.648 313.629 65.848 311.421 66.84L319.869 81H310.989L304.173 68.28ZM301.101 62.856H304.413C306.173 62.856 307.485 62.456 308.349 61.656C309.245 60.856 309.693 59.592 309.693 57.864C309.693 56.264 309.213 55.096 308.253 54.36C307.325 53.624 305.885 53.256 303.933 53.256H301.101V62.856ZM332.118 47.736C337.334 47.736 341.51 48.92 344.646 51.288C347.814 53.624 349.398 57.928 349.398 64.2C349.398 70.376 347.862 74.728 344.79 77.256C341.718 79.752 337.734 81 332.838 81H322.854V47.736H332.118ZM330.726 53.448V75.288H333.318C335.91 75.288 337.878 74.488 339.222 72.888C340.566 71.256 341.238 68.36 341.238 64.2C341.238 61.352 340.902 59.144 340.23 57.576C339.558 56.008 338.646 54.936 337.494 54.36C336.342 53.752 334.918 53.448 333.222 53.448H330.726ZM374.52 47.736L373.704 53.352H361.992V61.32H372.216V66.84H361.992V75.336H374.52V81H354.12V47.736H374.52Z" fill="black"/>
</svg>
