<svg width="1200" height="320" viewBox="0 0 1200 320" fill="none" xmlns="http://www.w3.org/2000/svg">
<path d="M394.744 133.472L393.208 145.568H376.792V200H361.048V145.568H343.864V133.472H394.744ZM441.884 133.472L440.252 144.704H416.828V160.64H437.276V171.68H416.828V188.672H441.884V200H401.084V133.472H441.884ZM473.503 174.56H467.359V200H451.615V133.472H473.407C482.495 133.472 489.311 135.136 493.855 138.464C498.463 141.792 500.767 146.88 500.767 153.728C500.767 158.016 499.743 161.6 497.695 164.48C495.647 167.296 492.415 169.696 487.999 171.68L504.895 200H487.135L473.503 174.56ZM467.359 163.712H473.983C477.503 163.712 480.127 162.912 481.855 161.312C483.647 159.712 484.543 157.184 484.543 153.728C484.543 150.528 483.583 148.192 481.663 146.72C479.807 145.248 476.927 144.512 473.023 144.512H467.359V163.712ZM551.665 133.472L550.033 144.704H526.609V160.64H547.057V171.68H526.609V188.672H551.665V200H510.865V133.472H551.665ZM518.641 127.52L513.169 121.28L526.801 108.896H536.017L549.553 121.28L544.177 127.52L531.409 119.456L518.641 127.52ZM634.002 133.472L615.474 200H595.89L576.689 133.472H593.298L605.97 187.712L617.874 133.472H634.002ZM679.728 133.472L678.096 144.704H654.672V160.64H675.12V171.68H654.672V188.672H679.728V200H638.928V133.472H679.728ZM711.347 174.56H705.203V200H689.459V133.472H711.251C720.339 133.472 727.155 135.136 731.699 138.464C736.307 141.792 738.611 146.88 738.611 153.728C738.611 158.016 737.587 161.6 735.539 164.48C733.491 167.296 730.259 169.696 725.843 171.68L742.739 200H724.979L711.347 174.56ZM705.203 163.712H711.827C715.347 163.712 717.971 162.912 719.699 161.312C721.491 159.712 722.387 157.184 722.387 153.728C722.387 150.528 721.427 148.192 719.507 146.72C717.651 145.248 714.771 144.512 710.867 144.512H705.203V163.712ZM767.237 133.472C777.669 133.472 786.021 135.84 792.293 140.576C798.629 145.248 801.797 153.856 801.797 166.4C801.797 178.752 798.725 187.456 792.581 192.512C786.437 197.504 778.469 200 768.677 200H748.709V133.472H767.237ZM764.453 144.896V188.576H769.637C774.821 188.576 778.757 186.976 781.445 183.776C784.133 180.512 785.477 174.72 785.477 166.4C785.477 160.704 784.805 156.288 783.461 153.152C782.117 150.016 780.293 147.872 777.989 146.72C775.685 145.504 772.837 144.896 769.445 144.896H764.453ZM852.04 133.472L850.408 144.704H826.984V160.64H847.432V171.68H826.984V188.672H852.04V200H811.24V133.472H852.04Z" fill="#002616"/>
</svg>
