<svg width="650" height="130" viewBox="0 0 650 130" fill="none" xmlns="http://www.w3.org/2000/svg">
<path d="M85.12 78H78.68L78.2 67.16C78.0667 64.5733 78 62.2667 78 60.24C78 58.6933 78.04 57.2267 78.12 55.84L73.84 75.08H67.64L63.08 55.84C63.24 58.16 63.32 60.3467 63.32 62.4C63.32 63.9467 63.28 65.56 63.2 67.24L62.72 78H56.32L58.4 50.28H66.68L70.84 69.08L74.72 50.28H83.04L85.12 78ZM99.8547 49.6C103.801 49.6 106.868 50.8667 109.055 53.4C111.268 55.9333 112.375 59.5067 112.375 64.12C112.375 67.1333 111.868 69.7333 110.855 71.92C109.868 74.1067 108.428 75.7867 106.535 76.96C104.668 78.1067 102.441 78.68 99.8547 78.68C97.268 78.68 95.0414 78.1067 93.1747 76.96C91.308 75.8133 89.868 74.16 88.8547 72C87.868 69.8133 87.3747 67.1867 87.3747 64.12C87.3747 61.1333 87.868 58.5467 88.8547 56.36C89.868 54.1733 91.308 52.5067 93.1747 51.36C95.0414 50.1867 97.268 49.6 99.8547 49.6ZM99.8547 54.4C97.9614 54.4 96.548 55.1733 95.6147 56.72C94.708 58.24 94.2547 60.7067 94.2547 64.12C94.2547 67.5333 94.7214 70.0133 95.6547 71.56C96.588 73.1067 97.988 73.88 99.8547 73.88C101.775 73.88 103.188 73.12 104.095 71.6C105.028 70.0533 105.495 67.56 105.495 64.12C105.495 60.68 105.028 58.2 104.095 56.68C103.161 55.16 101.748 54.4 99.8547 54.4ZM137.671 78H129.311L121.311 56.52C121.578 58.6267 121.778 60.4933 121.911 62.12C122.071 63.72 122.151 65.6267 122.151 67.84V78H116.311V50.28H124.471L132.671 71.8C132.084 68.1467 131.791 64.7067 131.791 61.48V50.28H137.671V78ZM161.794 50.28L161.154 55.32H154.314V78H147.754V55.32H140.594V50.28H161.794ZM177.044 78L175.604 72.04H167.524L166.124 78H159.324L167.684 50.28H175.644L184.004 78H177.044ZM168.644 67.28H174.484L171.564 55.04L168.644 67.28ZM207.398 78H199.038L191.038 56.52C191.304 58.6267 191.504 60.4933 191.638 62.12C191.798 63.72 191.878 65.6267 191.878 67.84V78H186.038V50.28H194.198L202.398 71.8C201.811 68.1467 201.518 64.7067 201.518 61.48V50.28H207.398V78ZM227.441 78V66.12H219.121V78H212.561V50.28H219.121V61H227.441V50.28H234.001V78H227.441ZM253.802 78L252.362 72.04H244.282L242.882 78H236.082L244.442 50.28H252.402L260.762 78H253.802ZM245.402 67.28H251.242L248.322 55.04L245.402 67.28ZM271.715 49.6C273.795 49.6 275.595 49.8933 277.115 50.48C278.662 51.0667 280.062 51.96 281.315 53.16L278.275 56.72C276.382 55.1733 274.355 54.4 272.195 54.4C271.049 54.4 270.142 54.64 269.475 55.12C268.809 55.5733 268.475 56.24 268.475 57.12C268.475 57.7333 268.622 58.24 268.915 58.64C269.209 59.0133 269.729 59.3733 270.475 59.72C271.222 60.0667 272.342 60.48 273.835 60.96C276.662 61.8667 278.742 62.9867 280.075 64.32C281.409 65.6267 282.075 67.4933 282.075 69.92C282.075 71.6533 281.635 73.1867 280.755 74.52C279.875 75.8267 278.609 76.8533 276.955 77.6C275.302 78.32 273.342 78.68 271.075 78.68C268.809 78.68 266.795 78.32 265.035 77.6C263.302 76.88 261.809 75.92 260.555 74.72L263.875 71.08C264.942 71.9867 266.035 72.6667 267.155 73.12C268.302 73.5733 269.542 73.8 270.875 73.8C272.235 73.8 273.302 73.5067 274.075 72.92C274.875 72.3067 275.275 71.4667 275.275 70.4C275.275 69.7067 275.129 69.1333 274.835 68.68C274.542 68.2 274.035 67.7733 273.315 67.4C272.595 67.0267 271.555 66.6267 270.195 66.2C267.129 65.2667 264.942 64.12 263.635 62.76C262.355 61.4 261.715 59.68 261.715 57.6C261.715 56 262.142 54.6 262.995 53.4C263.849 52.1733 265.035 51.24 266.555 50.6C268.075 49.9333 269.795 49.6 271.715 49.6ZM302.898 50.28C307.245 50.28 310.725 51.2667 313.338 53.24C315.978 55.1867 317.298 58.7733 317.298 64C317.298 69.1467 316.018 72.7733 313.458 74.88C310.898 76.96 307.578 78 303.498 78H295.178V50.28H302.898ZM301.738 55.04V73.24H303.898C306.058 73.24 307.698 72.5733 308.818 71.24C309.938 69.88 310.498 67.4667 310.498 64C310.498 61.6267 310.218 59.7867 309.658 58.48C309.098 57.1733 308.338 56.28 307.378 55.8C306.418 55.2933 305.231 55.04 303.818 55.04H301.738ZM338.233 50.28L337.553 54.96H327.793V61.6H336.313V66.2H327.793V73.28H338.233V78H321.233V50.28H338.233ZM370.74 50.28L370.1 55.32H363.26V78H356.7V55.32H349.54V50.28H370.74ZM390.381 50.28L389.701 54.96H379.941V61.6H388.461V66.2H379.941V73.28H390.381V78H373.381V50.28H390.381ZM403.556 67.4H400.996V78H394.436V50.28H403.516C407.303 50.28 410.143 50.9733 412.036 52.36C413.956 53.7467 414.916 55.8667 414.916 58.72C414.916 60.5067 414.489 62 413.636 63.2C412.783 64.3733 411.436 65.3733 409.596 66.2L416.636 78H409.236L403.556 67.4ZM400.996 62.88H403.756C405.223 62.88 406.316 62.5467 407.036 61.88C407.783 61.2133 408.156 60.16 408.156 58.72C408.156 57.3867 407.756 56.4133 406.956 55.8C406.183 55.1867 404.983 54.88 403.356 54.88H400.996V62.88ZM436.123 50.28L435.443 54.96H425.683V61.6H434.203V66.2H425.683V73.28H436.123V78H419.123V50.28H436.123ZM448.708 49.6C450.788 49.6 452.588 49.8933 454.108 50.48C455.654 51.0667 457.054 51.96 458.307 53.16L455.268 56.72C453.374 55.1733 451.348 54.4 449.188 54.4C448.041 54.4 447.134 54.64 446.468 55.12C445.801 55.5733 445.468 56.24 445.468 57.12C445.468 57.7333 445.614 58.24 445.908 58.64C446.201 59.0133 446.721 59.3733 447.467 59.72C448.214 60.0667 449.334 60.48 450.828 60.96C453.654 61.8667 455.734 62.9867 457.068 64.32C458.401 65.6267 459.068 67.4933 459.068 69.92C459.068 71.6533 458.628 73.1867 457.747 74.52C456.868 75.8267 455.601 76.8533 453.948 77.6C452.294 78.32 450.334 78.68 448.068 78.68C445.801 78.68 443.788 78.32 442.028 77.6C440.294 76.88 438.801 75.92 437.548 74.72L440.868 71.08C441.934 71.9867 443.028 72.6667 444.148 73.12C445.294 73.5733 446.534 73.8 447.868 73.8C449.228 73.8 450.294 73.5067 451.068 72.92C451.868 72.3067 452.268 71.4667 452.268 70.4C452.268 69.7067 452.121 69.1333 451.828 68.68C451.534 68.2 451.028 67.7733 450.308 67.4C449.588 67.0267 448.548 66.6267 447.188 66.2C444.121 65.2667 441.934 64.12 440.628 62.76C439.348 61.4 438.708 59.68 438.708 57.6C438.708 56 439.134 54.6 439.988 53.4C440.841 52.1733 442.028 51.24 443.548 50.6C445.068 49.9333 446.788 49.6 448.708 49.6ZM473.878 49.6C477.825 49.6 480.891 50.8667 483.078 53.4C485.291 55.9333 486.398 59.5067 486.398 64.12C486.398 67.1333 485.891 69.7333 484.878 71.92C483.891 74.1067 482.451 75.7867 480.558 76.96C478.691 78.1067 476.465 78.68 473.878 78.68C471.291 78.68 469.065 78.1067 467.198 76.96C465.331 75.8133 463.891 74.16 462.878 72C461.891 69.8133 461.398 67.1867 461.398 64.12C461.398 61.1333 461.891 58.5467 462.878 56.36C463.891 54.1733 465.331 52.5067 467.198 51.36C469.065 50.1867 471.291 49.6 473.878 49.6ZM473.878 54.4C471.985 54.4 470.571 55.1733 469.638 56.72C468.731 58.24 468.278 60.7067 468.278 64.12C468.278 67.5333 468.745 70.0133 469.678 71.56C470.611 73.1067 472.011 73.88 473.878 73.88C475.798 73.88 477.211 73.12 478.118 71.6C479.051 70.0533 479.518 67.56 479.518 64.12C479.518 60.68 479.051 58.2 478.118 56.68C477.185 55.16 475.771 54.4 473.878 54.4ZM477.118 39.76L479.478 44.48L469.878 47.96L468.278 44.76L477.118 39.76ZM499.294 50.28C502.948 50.28 505.788 51.04 507.814 52.56C509.841 54.08 510.854 56.3333 510.854 59.32C510.854 62.44 509.854 64.8 507.854 66.4C505.881 67.9733 503.228 68.76 499.894 68.76H496.894V78H490.334V50.28H499.294ZM499.334 64.04C500.881 64.04 502.054 63.68 502.854 62.96C503.681 62.2133 504.094 61 504.094 59.32C504.094 56.4133 502.468 54.96 499.214 54.96H496.894V64.04H499.334ZM525.519 49.6C529.465 49.6 532.532 50.8667 534.719 53.4C536.932 55.9333 538.039 59.5067 538.039 64.12C538.039 67.1333 537.532 69.7333 536.519 71.92C535.532 74.1067 534.092 75.7867 532.199 76.96C530.332 78.1067 528.105 78.68 525.519 78.68C522.932 78.68 520.705 78.1067 518.839 76.96C516.972 75.8133 515.532 74.16 514.519 72C513.532 69.8133 513.039 67.1867 513.039 64.12C513.039 61.1333 513.532 58.5467 514.519 56.36C515.532 54.1733 516.972 52.5067 518.839 51.36C520.705 50.1867 522.932 49.6 525.519 49.6ZM525.519 54.4C523.625 54.4 522.212 55.1733 521.279 56.72C520.372 58.24 519.919 60.7067 519.919 64.12C519.919 67.5333 520.385 70.0133 521.319 71.56C522.252 73.1067 523.652 73.88 525.519 73.88C527.439 73.88 528.852 73.12 529.759 71.6C530.692 70.0533 531.159 67.56 531.159 64.12C531.159 60.68 530.692 58.2 529.759 56.68C528.825 55.16 527.412 54.4 525.519 54.4ZM548.535 50.28V72.8H559.335L558.655 78H541.975V50.28H548.535ZM569.043 50.28V78H562.483V50.28H569.043ZM583.122 49.6C585.202 49.6 587.002 49.8933 588.522 50.48C590.068 51.0667 591.468 51.96 592.722 53.16L589.682 56.72C587.788 55.1733 585.762 54.4 583.602 54.4C582.455 54.4 581.548 54.64 580.882 55.12C580.215 55.5733 579.882 56.24 579.882 57.12C579.882 57.7333 580.028 58.24 580.322 58.64C580.615 59.0133 581.135 59.3733 581.882 59.72C582.628 60.0667 583.748 60.48 585.242 60.96C588.068 61.8667 590.148 62.9867 591.482 64.32C592.815 65.6267 593.482 67.4933 593.482 69.92C593.482 71.6533 593.042 73.1867 592.162 74.52C591.282 75.8267 590.015 76.8533 588.362 77.6C586.708 78.32 584.748 78.68 582.482 78.68C580.215 78.68 578.202 78.32 576.442 77.6C574.708 76.88 573.215 75.92 571.962 74.72L575.282 71.08C576.348 71.9867 577.442 72.6667 578.562 73.12C579.708 73.5733 580.948 73.8 582.282 73.8C583.642 73.8 584.708 73.5067 585.482 72.92C586.282 72.3067 586.682 71.4667 586.682 70.4C586.682 69.7067 586.535 69.1333 586.242 68.68C585.948 68.2 585.442 67.7733 584.722 67.4C584.002 67.0267 582.962 66.6267 581.602 66.2C578.535 65.2667 576.348 64.12 575.042 62.76C573.762 61.4 573.122 59.68 573.122 57.6C573.122 56 573.548 54.6 574.402 53.4C575.255 52.1733 576.442 51.24 577.962 50.6C579.482 49.9333 581.202 49.6 583.122 49.6Z" fill="#003D21"/>
</svg>
