<svg width="500" height="130" viewBox="0 0 500 130" fill="none" xmlns="http://www.w3.org/2000/svg">
<path d="M79.52 49.6C81.6 49.6 83.4 49.8933 84.92 50.48C86.4667 51.0667 87.8667 51.96 89.12 53.16L86.08 56.72C84.1867 55.1733 82.16 54.4 80 54.4C78.8533 54.4 77.9467 54.64 77.28 55.12C76.6133 55.5733 76.28 56.24 76.28 57.12C76.28 57.7333 76.4267 58.24 76.72 58.64C77.0133 59.0133 77.5333 59.3733 78.28 59.72C79.0267 60.0667 80.1467 60.48 81.64 60.96C84.4667 61.8667 86.5467 62.9867 87.88 64.32C89.2133 65.6267 89.88 67.4933 89.88 69.92C89.88 71.6533 89.44 73.1867 88.56 74.52C87.68 75.8267 86.4133 76.8533 84.76 77.6C83.1067 78.32 81.1467 78.68 78.88 78.68C76.6133 78.68 74.6 78.32 72.84 77.6C71.1067 76.88 69.6133 75.92 68.36 74.72L71.68 71.08C72.7467 71.9867 73.84 72.6667 74.96 73.12C76.1067 73.5733 77.3467 73.8 78.68 73.8C80.04 73.8 81.1067 73.5067 81.88 72.92C82.68 72.3067 83.08 71.4667 83.08 70.4C83.08 69.7067 82.9333 69.1333 82.64 68.68C82.3467 68.2 81.84 67.7733 81.12 67.4C80.4 67.0267 79.36 66.6267 78 66.2C74.9333 65.2667 72.7467 64.12 71.44 62.76C70.16 61.4 69.52 59.68 69.52 57.6C69.52 56 69.9467 54.6 70.8 53.4C71.6533 52.1733 72.84 51.24 74.36 50.6C75.88 49.9333 77.6 49.6 79.52 49.6ZM110.491 50.28L109.811 54.96H100.051V61.6H108.571V66.2H100.051V73.28H110.491V78H93.4906V50.28H110.491ZM123.665 67.4H121.105V78H114.545V50.28H123.625C127.412 50.28 130.252 50.9733 132.145 52.36C134.065 53.7467 135.025 55.8667 135.025 58.72C135.025 60.5067 134.599 62 133.745 63.2C132.892 64.3733 131.545 65.3733 129.705 66.2L136.745 78H129.345L123.665 67.4ZM121.105 62.88H123.865C125.332 62.88 126.425 62.5467 127.145 61.88C127.892 61.2133 128.265 60.16 128.265 58.72C128.265 57.3867 127.865 56.4133 127.065 55.8C126.292 55.1867 125.092 54.88 123.465 54.88H121.105V62.88ZM148.353 67.4H145.793V78H139.233V50.28H148.313C152.099 50.28 154.939 50.9733 156.833 52.36C158.753 53.7467 159.713 55.8667 159.713 58.72C159.713 60.5067 159.286 62 158.433 63.2C157.579 64.3733 156.233 65.3733 154.393 66.2L161.433 78H154.033L148.353 67.4ZM145.793 62.88H148.553C150.019 62.88 151.113 62.5467 151.833 61.88C152.579 61.2133 152.953 60.16 152.953 58.72C152.953 57.3867 152.553 56.4133 151.753 55.8C150.979 55.1867 149.779 54.88 148.153 54.88H145.793V62.88ZM178.52 78L177.08 72.04H169L167.6 78H160.8L169.16 50.28H177.12L185.48 78H178.52ZM170.12 67.28H175.96L173.04 55.04L170.12 67.28ZM204.726 50.28C209.073 50.28 212.553 51.2667 215.166 53.24C217.806 55.1867 219.126 58.7733 219.126 64C219.126 69.1467 217.846 72.7733 215.286 74.88C212.726 76.96 209.406 78 205.326 78H197.006V50.28H204.726ZM203.566 55.04V73.24H205.726C207.886 73.24 209.526 72.5733 210.646 71.24C211.766 69.88 212.326 67.4667 212.326 64C212.326 61.6267 212.046 59.7867 211.486 58.48C210.926 57.1733 210.166 56.28 209.206 55.8C208.246 55.2933 207.06 55.04 205.646 55.04H203.566ZM234.261 49.6C238.208 49.6 241.274 50.8667 243.461 53.4C245.674 55.9333 246.781 59.5067 246.781 64.12C246.781 67.1333 246.274 69.7333 245.261 71.92C244.274 74.1067 242.834 75.7867 240.941 76.96C239.074 78.1067 236.848 78.68 234.261 78.68C231.674 78.68 229.448 78.1067 227.581 76.96C225.714 75.8133 224.274 74.16 223.261 72C222.274 69.8133 221.781 67.1867 221.781 64.12C221.781 61.1333 222.274 58.5467 223.261 56.36C224.274 54.1733 225.714 52.5067 227.581 51.36C229.448 50.1867 231.674 49.6 234.261 49.6ZM234.261 54.4C232.368 54.4 230.954 55.1733 230.021 56.72C229.114 58.24 228.661 60.7067 228.661 64.12C228.661 67.5333 229.128 70.0133 230.061 71.56C230.994 73.1067 232.394 73.88 234.261 73.88C236.181 73.88 237.594 73.12 238.501 71.6C239.434 70.0533 239.901 67.56 239.901 64.12C239.901 60.68 239.434 58.2 238.501 56.68C237.568 55.16 236.154 54.4 234.261 54.4ZM259.637 49.6C261.717 49.6 263.517 49.8933 265.037 50.48C266.584 51.0667 267.984 51.96 269.237 53.16L266.197 56.72C264.304 55.1733 262.277 54.4 260.117 54.4C258.971 54.4 258.064 54.64 257.397 55.12C256.731 55.5733 256.397 56.24 256.397 57.12C256.397 57.7333 256.544 58.24 256.837 58.64C257.131 59.0133 257.651 59.3733 258.397 59.72C259.144 60.0667 260.264 60.48 261.757 60.96C264.584 61.8667 266.664 62.9867 267.997 64.32C269.331 65.6267 269.997 67.4933 269.997 69.92C269.997 71.6533 269.557 73.1867 268.677 74.52C267.797 75.8267 266.531 76.8533 264.877 77.6C263.224 78.32 261.264 78.68 258.997 78.68C256.731 78.68 254.717 78.32 252.957 77.6C251.224 76.88 249.731 75.92 248.477 74.72L251.797 71.08C252.864 71.9867 253.957 72.6667 255.077 73.12C256.224 73.5733 257.464 73.8 258.797 73.8C260.157 73.8 261.224 73.5067 261.997 72.92C262.797 72.3067 263.197 71.4667 263.197 70.4C263.197 69.7067 263.051 69.1333 262.757 68.68C262.464 68.2 261.957 67.7733 261.237 67.4C260.517 67.0267 259.477 66.6267 258.117 66.2C255.051 65.2667 252.864 64.12 251.557 62.76C250.277 61.4 249.637 59.68 249.637 57.6C249.637 56 250.064 54.6 250.917 53.4C251.771 52.1733 252.957 51.24 254.477 50.6C255.997 49.9333 257.717 49.6 259.637 49.6ZM294.3 49.6C298.247 49.6 301.313 50.8667 303.5 53.4C305.713 55.9333 306.82 59.5067 306.82 64.12C306.82 67.1333 306.313 69.7333 305.3 71.92C304.313 74.1067 302.873 75.7867 300.98 76.96C299.113 78.1067 296.887 78.68 294.3 78.68C291.713 78.68 289.487 78.1067 287.62 76.96C285.753 75.8133 284.313 74.16 283.3 72C282.313 69.8133 281.82 67.1867 281.82 64.12C281.82 61.1333 282.313 58.5467 283.3 56.36C284.313 54.1733 285.753 52.5067 287.62 51.36C289.487 50.1867 291.713 49.6 294.3 49.6ZM294.3 54.4C292.407 54.4 290.993 55.1733 290.06 56.72C289.153 58.24 288.7 60.7067 288.7 64.12C288.7 67.5333 289.167 70.0133 290.1 71.56C291.033 73.1067 292.433 73.88 294.3 73.88C296.22 73.88 297.633 73.12 298.54 71.6C299.473 70.0533 299.94 67.56 299.94 64.12C299.94 60.68 299.473 58.2 298.54 56.68C297.607 55.16 296.193 54.4 294.3 54.4ZM319.876 67.4H317.316V78H310.756V50.28H319.836C323.623 50.28 326.463 50.9733 328.356 52.36C330.276 53.7467 331.236 55.8667 331.236 58.72C331.236 60.5067 330.81 62 329.956 63.2C329.103 64.3733 327.756 65.3733 325.916 66.2L332.956 78H325.556L319.876 67.4ZM317.316 62.88H320.076C321.543 62.88 322.636 62.5467 323.356 61.88C324.103 61.2133 324.476 60.16 324.476 58.72C324.476 57.3867 324.076 56.4133 323.276 55.8C322.503 55.1867 321.303 54.88 319.676 54.88H317.316V62.88ZM346.936 49.6C350.509 49.6 353.589 50.7333 356.176 53L352.856 56.48C351.869 55.7333 350.949 55.2 350.096 54.88C349.269 54.5333 348.309 54.36 347.216 54.36C345.163 54.36 343.523 55.1733 342.296 56.8C341.069 58.4 340.456 60.84 340.456 64.12C340.456 67.6667 340.923 70.1867 341.856 71.68C342.789 73.1467 344.243 73.88 346.216 73.88C347.603 73.88 348.856 73.5733 349.976 72.96V66.68H346.376L345.736 62.04H356.336V75.76C354.896 76.6933 353.309 77.4133 351.576 77.92C349.843 78.4267 348.109 78.68 346.376 78.68C342.163 78.68 338.989 77.4533 336.856 75C334.723 72.52 333.656 68.8933 333.656 64.12C333.656 61.08 334.229 58.4667 335.376 56.28C336.549 54.0933 338.136 52.44 340.136 51.32C342.163 50.1733 344.429 49.6 346.936 49.6ZM375.317 78L373.877 72.04H365.797L364.397 78H357.597L365.957 50.28H373.917L382.277 78H375.317ZM366.917 67.28H372.757L369.837 55.04L366.917 67.28ZM372.277 47.56C371.691 47.56 371.184 47.4667 370.757 47.28C370.331 47.0933 369.864 46.8267 369.357 46.48C368.691 46 368.144 45.76 367.717 45.76C367.264 45.76 366.877 45.9067 366.557 46.2C366.264 46.4667 365.944 46.9067 365.597 47.52L362.437 46C362.971 44.6133 363.677 43.48 364.557 42.6C365.464 41.72 366.477 41.28 367.597 41.28C368.211 41.28 368.731 41.3867 369.157 41.6C369.611 41.7867 370.104 42.0533 370.637 42.4C371.011 42.64 371.304 42.8133 371.517 42.92C371.757 43.0267 371.997 43.08 372.237 43.08C372.664 43.08 373.024 42.9467 373.317 42.68C373.637 42.3867 373.971 41.9333 374.317 41.32L377.477 42.88C376.917 44.2933 376.184 45.4267 375.277 46.28C374.397 47.1333 373.397 47.56 372.277 47.56ZM395.12 49.6C399.067 49.6 402.134 50.8667 404.32 53.4C406.534 55.9333 407.64 59.5067 407.64 64.12C407.64 67.1333 407.134 69.7333 406.12 71.92C405.134 74.1067 403.694 75.7867 401.8 76.96C399.934 78.1067 397.707 78.68 395.12 78.68C392.534 78.68 390.307 78.1067 388.44 76.96C386.574 75.8133 385.134 74.16 384.12 72C383.134 69.8133 382.64 67.1867 382.64 64.12C382.64 61.1333 383.134 58.5467 384.12 56.36C385.134 54.1733 386.574 52.5067 388.44 51.36C390.307 50.1867 392.534 49.6 395.12 49.6ZM395.12 54.4C393.227 54.4 391.814 55.1733 390.88 56.72C389.974 58.24 389.52 60.7067 389.52 64.12C389.52 67.5333 389.987 70.0133 390.92 71.56C391.854 73.1067 393.254 73.88 395.12 73.88C397.04 73.88 398.454 73.12 399.36 71.6C400.294 70.0533 400.76 67.56 400.76 64.12C400.76 60.68 400.294 58.2 399.36 56.68C398.427 55.16 397.014 54.4 395.12 54.4ZM420.497 49.6C422.577 49.6 424.377 49.8933 425.897 50.48C427.443 51.0667 428.843 51.96 430.097 53.16L427.057 56.72C425.163 55.1733 423.137 54.4 420.977 54.4C419.83 54.4 418.923 54.64 418.257 55.12C417.59 55.5733 417.257 56.24 417.257 57.12C417.257 57.7333 417.403 58.24 417.697 58.64C417.99 59.0133 418.51 59.3733 419.257 59.72C420.003 60.0667 421.123 60.48 422.617 60.96C425.443 61.8667 427.523 62.9867 428.857 64.32C430.19 65.6267 430.857 67.4933 430.857 69.92C430.857 71.6533 430.417 73.1867 429.537 74.52C428.657 75.8267 427.39 76.8533 425.737 77.6C424.083 78.32 422.123 78.68 419.857 78.68C417.59 78.68 415.577 78.32 413.817 77.6C412.083 76.88 410.59 75.92 409.337 74.72L412.657 71.08C413.723 71.9867 414.817 72.6667 415.937 73.12C417.083 73.5733 418.323 73.8 419.657 73.8C421.017 73.8 422.083 73.5067 422.857 72.92C423.657 72.3067 424.057 71.4667 424.057 70.4C424.057 69.7067 423.91 69.1333 423.617 68.68C423.323 68.2 422.817 67.7733 422.097 67.4C421.377 67.0267 420.337 66.6267 418.977 66.2C415.91 65.2667 413.723 64.12 412.417 62.76C411.137 61.4 410.497 59.68 410.497 57.6C410.497 56 410.923 54.6 411.777 53.4C412.63 52.1733 413.817 51.24 415.337 50.6C416.857 49.9333 418.577 49.6 420.497 49.6Z" fill="#003D21"/>
</svg>
