<svg width="500" height="130" viewBox="0 0 500 130" fill="none" xmlns="http://www.w3.org/2000/svg">
<path d="M167.56 50.28L166.92 55.32H160.08V78H153.52V55.32H146.36V50.28H167.56ZM179.322 67.4H176.762V78H170.202V50.28H179.282C183.068 50.28 185.908 50.9733 187.802 52.36C189.722 53.7467 190.682 55.8667 190.682 58.72C190.682 60.5067 190.255 62 189.402 63.2C188.548 64.3733 187.202 65.3733 185.362 66.2L192.402 78H185.002L179.322 67.4ZM176.762 62.88H179.522C180.988 62.88 182.082 62.5467 182.802 61.88C183.548 61.2133 183.922 60.16 183.922 58.72C183.922 57.3867 183.522 56.4133 182.722 55.8C181.948 55.1867 180.748 54.88 179.122 54.88H176.762V62.88ZM211.889 50.28L211.209 54.96H201.449V61.6H209.969V66.2H201.449V73.28H211.889V78H194.889V50.28H211.889ZM198.129 47.8L195.849 45.2L201.529 40.04H205.369L211.009 45.2L208.769 47.8L203.449 44.44L198.129 47.8ZM224.473 49.6C226.553 49.6 228.353 49.8933 229.873 50.48C231.42 51.0667 232.82 51.96 234.073 53.16L231.033 56.72C229.14 55.1733 227.113 54.4 224.953 54.4C223.806 54.4 222.9 54.64 222.233 55.12C221.566 55.5733 221.233 56.24 221.233 57.12C221.233 57.7333 221.38 58.24 221.673 58.64C221.966 59.0133 222.486 59.3733 223.233 59.72C223.98 60.0667 225.1 60.48 226.593 60.96C229.42 61.8667 231.5 62.9867 232.833 64.32C234.166 65.6267 234.833 67.4933 234.833 69.92C234.833 71.6533 234.393 73.1867 233.513 74.52C232.633 75.8267 231.366 76.8533 229.713 77.6C228.06 78.32 226.1 78.68 223.833 78.68C221.566 78.68 219.553 78.32 217.793 77.6C216.06 76.88 214.566 75.92 213.313 74.72L216.633 71.08C217.7 71.9867 218.793 72.6667 219.913 73.12C221.06 73.5733 222.3 73.8 223.633 73.8C224.993 73.8 226.06 73.5067 226.833 72.92C227.633 72.3067 228.033 71.4667 228.033 70.4C228.033 69.7067 227.886 69.1333 227.593 68.68C227.3 68.2 226.793 67.7733 226.073 67.4C225.353 67.0267 224.313 66.6267 222.953 66.2C219.886 65.2667 217.7 64.12 216.393 62.76C215.113 61.4 214.473 59.68 214.473 57.6C214.473 56 214.9 54.6 215.753 53.4C216.606 52.1733 217.793 51.24 219.313 50.6C220.833 49.9333 222.553 49.6 224.473 49.6ZM256.896 50.28C260.549 50.28 263.389 51.04 265.416 52.56C267.443 54.08 268.456 56.3333 268.456 59.32C268.456 62.44 267.456 64.8 265.456 66.4C263.483 67.9733 260.829 68.76 257.496 68.76H254.496V78H247.936V50.28H256.896ZM256.936 64.04C258.483 64.04 259.656 63.68 260.456 62.96C261.283 62.2133 261.696 61 261.696 59.32C261.696 56.4133 260.069 54.96 256.816 54.96H254.496V64.04H256.936ZM278.48 50.28V78H271.92V50.28H278.48ZM294.959 49.6C296.692 49.6 298.226 49.8533 299.559 50.36C300.919 50.8667 302.199 51.6267 303.399 52.64L300.279 56.36C299.452 55.72 298.639 55.24 297.839 54.92C297.039 54.6 296.186 54.44 295.279 54.44C293.412 54.44 291.932 55.2267 290.839 56.8C289.772 58.3733 289.239 60.8 289.239 64.08C289.239 67.3067 289.772 69.7067 290.839 71.28C291.932 72.8267 293.439 73.6 295.359 73.6C296.372 73.6 297.292 73.4133 298.119 73.04C298.946 72.64 299.839 72.08 300.799 71.36L303.719 75.12C302.679 76.16 301.412 77.0133 299.919 77.68C298.452 78.3467 296.826 78.68 295.039 78.68C292.479 78.68 290.252 78.12 288.359 77C286.466 75.88 284.986 74.2267 283.919 72.04C282.879 69.8267 282.359 67.1733 282.359 64.08C282.359 61.0667 282.892 58.4667 283.959 56.28C285.052 54.0933 286.546 52.44 288.439 51.32C290.359 50.1733 292.532 49.6 294.959 49.6ZM317.066 49.6C321.012 49.6 324.079 50.8667 326.266 53.4C328.479 55.9333 329.586 59.5067 329.586 64.12C329.586 67.1333 329.079 69.7333 328.066 71.92C327.079 74.1067 325.639 75.7867 323.746 76.96C321.879 78.1067 319.652 78.68 317.066 78.68C314.479 78.68 312.252 78.1067 310.386 76.96C308.519 75.8133 307.079 74.16 306.066 72C305.079 69.8133 304.586 67.1867 304.586 64.12C304.586 61.1333 305.079 58.5467 306.066 56.36C307.079 54.1733 308.519 52.5067 310.386 51.36C312.252 50.1867 314.479 49.6 317.066 49.6ZM317.066 54.4C315.172 54.4 313.759 55.1733 312.826 56.72C311.919 58.24 311.466 60.7067 311.466 64.12C311.466 67.5333 311.932 70.0133 312.866 71.56C313.799 73.1067 315.199 73.88 317.066 73.88C318.986 73.88 320.399 73.12 321.306 71.6C322.239 70.0533 322.706 67.56 322.706 64.12C322.706 60.68 322.239 58.2 321.306 56.68C320.372 55.16 318.959 54.4 317.066 54.4ZM342.442 49.6C344.522 49.6 346.322 49.8933 347.842 50.48C349.389 51.0667 350.789 51.96 352.042 53.16L349.002 56.72C347.109 55.1733 345.082 54.4 342.922 54.4C341.775 54.4 340.869 54.64 340.202 55.12C339.535 55.5733 339.202 56.24 339.202 57.12C339.202 57.7333 339.349 58.24 339.642 58.64C339.935 59.0133 340.455 59.3733 341.202 59.72C341.949 60.0667 343.069 60.48 344.562 60.96C347.389 61.8667 349.469 62.9867 350.802 64.32C352.135 65.6267 352.802 67.4933 352.802 69.92C352.802 71.6533 352.362 73.1867 351.482 74.52C350.602 75.8267 349.335 76.8533 347.682 77.6C346.029 78.32 344.069 78.68 341.802 78.68C339.535 78.68 337.522 78.32 335.762 77.6C334.029 76.88 332.535 75.92 331.282 74.72L334.602 71.08C335.669 71.9867 336.762 72.6667 337.882 73.12C339.029 73.5733 340.269 73.8 341.602 73.8C342.962 73.8 344.029 73.5067 344.802 72.92C345.602 72.3067 346.002 71.4667 346.002 70.4C346.002 69.7067 345.855 69.1333 345.562 68.68C345.269 68.2 344.762 67.7733 344.042 67.4C343.322 67.0267 342.282 66.6267 340.922 66.2C337.855 65.2667 335.669 64.12 334.362 62.76C333.082 61.4 332.442 59.68 332.442 57.6C332.442 56 332.869 54.6 333.722 53.4C334.575 52.1733 335.762 51.24 337.282 50.6C338.802 49.9333 340.522 49.6 342.442 49.6Z" fill="#003D21"/>
</svg>
